<?xml version="1.0" encoding="utf-8"?>
<!-- Generator: Adobe Illustrator 21.0.2, SVG Export Plug-In . SVG Version: 6.00 Build 0)  -->
<svg version="1.1" id="Layer_1" xmlns="http://www.w3.org/2000/svg" xmlns:xlink="http://www.w3.org/1999/xlink" x="0px" y="0px"
	 viewBox="0 0 864 576" style="enable-background:new 0 0 864 576;" xml:space="preserve">
<style type="text/css">
	.st0{fill:#C2DBF3;}
	.st1{fill:none;stroke:#374649;stroke-miterlimit:10;}
	.st2{fill:#374649;}
	.st3{fill:#23A0C8;}
	.st4{fill:#38B1D9;}
	.st5{fill:#1F82A6;}
	.st6{fill:#1C92B5;}
	.st7{fill:#23A3C2;}
	.st8{fill:#35BCDF;}
	.st9{fill:#D3EDEC;}
	.st10{fill:#BEDAD8;}
	.st11{fill:#D5DF24;}
	.st12{font-family:'CourierNewPSMT';}
	.st13{font-size:29.6789px;}
	.st14{fill:#374649;stroke:#D5DF24;stroke-width:6;stroke-linecap:round;stroke-miterlimit:10;}
	.st15{font-family:'CourierNewPS-BoldMT';}
	.st16{font-size:19.0444px;}
</style>
<path id="DockerBox" class="st1" d="M438.5,346.1H94.6c-2.8,0-5-2.2-5-5V59.5c0-2.8,2.2-5,5-5h343.8c2.8,0,5,2.2,5,5v281.5
	C443.5,343.8,441.2,346.1,438.5,346.1z"/>
<g id="DockerLogo">
	<path class="st2" d="M106.4,91.7v-3c0-0.4,0.2-0.7,0.7-0.7h0.1c0.4,0,0.7,0.3,0.7,0.7v6.4c0,1.6-0.8,2.8-2.1,3.6
		c-0.6,0.4-1.3,0.6-2,0.6h-0.3c-1.6,0-2.8-0.8-3.6-2.1c-0.4-0.6-0.6-1.3-0.6-2v-0.3c0-1.6,0.8-2.8,2.1-3.6c0.6-0.4,1.3-0.6,2-0.6
		h0.3C104.8,90.7,105.7,91.1,106.4,91.7L106.4,91.7z M100.7,95c0,1.1,0.5,2,1.5,2.5c0.4,0.2,0.8,0.3,1.3,0.3c1.1,0,1.9-0.5,2.5-1.5
		c0.3-0.4,0.4-0.9,0.4-1.4c0-1-0.5-1.7-1.3-2.3c-0.5-0.3-1-0.5-1.6-0.5c-1.2,0-2.1,0.6-2.6,1.7C100.8,94.2,100.7,94.6,100.7,95
		L100.7,95z M112.9,90.7h0.2c1.7,0,2.9,0.8,3.7,2.3c0.3,0.6,0.5,1.2,0.5,1.9v0.3c0,1.6-0.8,2.8-2.1,3.6c-0.6,0.4-1.3,0.6-2,0.6h-0.3
		c-1.6,0-2.8-0.8-3.6-2.1c-0.4-0.6-0.6-1.3-0.6-2v-0.3c0-1.6,0.8-2.8,2.1-3.6C111.4,90.9,112.1,90.7,112.9,90.7L112.9,90.7z
		 M110.1,95c0,1.1,0.5,1.9,1.5,2.5c0.4,0.3,0.9,0.4,1.4,0.4c1.1,0,1.9-0.5,2.4-1.5c0.3-0.4,0.4-0.9,0.4-1.4c0-1-0.5-1.8-1.3-2.4
		c-0.5-0.3-1-0.5-1.5-0.5c-1.2,0-2.1,0.6-2.6,1.7C110.2,94.2,110.1,94.6,110.1,95L110.1,95z M123.3,92.2c-0.2-0.1-0.6-0.1-0.9-0.1
		c-1.2,0-2.1,0.6-2.6,1.7c-0.2,0.4-0.3,0.8-0.3,1.2c0,1.2,0.6,2.1,1.7,2.6c0.4,0.2,0.9,0.2,1.4,0.2c0.4,0,0.9-0.2,1.3-0.4l0.1,0h0.3
		l0,0c0.3,0.1,0.6,0.3,0.6,0.6v0.1c0,0.9-1.6,1.1-2.2,1.1c-2.2,0.1-3.8-1-4.4-3.1c-0.1-0.4-0.2-0.7-0.2-1.1v-0.3
		c0-1.6,0.8-2.8,2.1-3.6c0.6-0.4,1.3-0.6,2-0.6h0.3c0.8,0,1.5,0.2,2.1,0.7l0.1,0l0,0.1c0.1,0.1,0.1,0.2,0.1,0.4v0.1
		c0,0.4-0.3,0.6-0.6,0.6l0,0h-0.1C124,92.5,123.5,92.3,123.3,92.2L123.3,92.2z M128,93.2c0.6-0.6,1.1-1.1,1.7-1.7
		c0.2-0.2,0.8-0.8,1-0.8h0.3l0,0c0.3,0.1,0.6,0.3,0.6,0.6v0.1c0,0.2-0.3,0.5-0.4,0.7c-0.3,0.4-0.7,0.7-1,1l-1.7,1.8
		c0.7,0.8,1.5,1.5,2.2,2.3c0.2,0.2,0.4,0.4,0.6,0.6c0.1,0.1,0.2,0.2,0.2,0.3c0.1,0.1,0.1,0.2,0.1,0.3v0.1l0,0
		c-0.1,0.3-0.3,0.6-0.7,0.6h-0.1c-0.2,0-0.5-0.3-0.7-0.4c-0.3-0.3-0.7-0.7-1-1l-1.1-1.1v1.7c0,0.4-0.3,0.7-0.7,0.7h-0.1
		c-0.4,0-0.7-0.3-0.7-0.7v-9.8c0-0.4,0.2-0.7,0.7-0.7h0.1c0.4,0,0.7,0.3,0.7,0.7V93.2L128,93.2z M145.9,90.7h0.1
		c0.4,0,0.7,0.3,0.7,0.7c0,0.6-0.6,0.7-1.1,0.7c-0.6,0-1.3,0.4-1.7,0.8c-0.6,0.5-0.8,1.3-0.8,2v3.5c0,0.4-0.2,0.7-0.7,0.7h-0.1
		c-0.4,0-0.7-0.3-0.7-0.7v-3.7c0-1.4,0.7-2.6,1.8-3.4C144.3,91,145.1,90.7,145.9,90.7L145.9,90.7z M135.7,97.6
		c0.5,0.2,1.1,0.2,1.7,0.1c0.3-0.1,1-0.4,1.2-0.4l0,0l0,0c0.2,0.1,0.3,0.2,0.4,0.3c0.2,0.4,0.1,0.8-0.3,1l-0.1,0.1
		c-1.4,0.8-2.8,0.7-4.2-0.1c-0.7-0.4-1.1-0.9-1.5-1.5l-0.1-0.1c-0.9-1.5-0.8-3.1,0.2-4.6c0.3-0.5,0.8-0.9,1.3-1.2l0.2-0.1
		c1.3-0.7,2.7-0.7,4,0c0.7,0.4,1.3,0.9,1.7,1.6l0.1,0.1c0.3,0.5-0.1,0.9-0.5,1.2c-0.4,0.3-0.9,0.8-1.3,1.1
		C137.6,96,136.6,96.8,135.7,97.6L135.7,97.6z M134.4,96.8c1.1-0.9,2.1-1.8,3.2-2.8c0.4-0.3,0.8-0.6,1.1-1c-0.3-0.4-0.8-0.6-1.2-0.8
		c-0.8-0.3-1.6-0.2-2.4,0.2c-1,0.6-1.4,1.5-1.4,2.6c0,0.4,0.1,0.9,0.4,1.3C134.2,96.5,134.3,96.6,134.4,96.8z M126.7,67.9h4.2v4.3
		h2.1c1,0,2-0.2,3-0.5c0.5-0.2,1-0.4,1.4-0.6c-0.6-0.8-0.9-1.8-1-2.7c-0.1-1.3,0.1-3.1,1-4.1l0.4-0.5l0.5,0.4
		c1.3,1.1,2.5,2.6,2.7,4.3c1.6-0.5,3.5-0.4,4.9,0.5l0.6,0.3l-0.3,0.6c-1.2,2.3-3.7,3.1-6.2,2.9c-3.7,9.2-11.7,13.5-21.4,13.5
		c-5,0-9.6-1.9-12.2-6.3l0-0.1l-0.4-0.8c-0.9-2-1.2-4.1-1-6.3l0.1-0.6h3.6v-4.3h4.2v-4.2h8.5v-4.2h5.1V67.9"/>
	<path class="st3" d="M140.4,69.5c0.3-2.2-1.4-4-2.4-4.8c-1.2,1.4-1.4,5,0.5,6.5c-1,0.9-3.2,1.8-5.5,1.8h-27.2
		c-0.2,2.3,0.2,4.5,1.1,6.3l0.3,0.6c0.2,0.3,0.4,0.7,0.6,1c1.1,0.1,2.2,0.1,3.1,0.1h0c1.9,0,3.4-0.3,4.5-0.7c0.2-0.1,0.4,0,0.4,0.2
		c0.1,0.2,0,0.3-0.2,0.4c-0.2,0.1-0.3,0.1-0.5,0.1h0c-0.9,0.3-1.9,0.4-3.1,0.5c0.1,0-0.1,0-0.1,0c0,0-0.1,0-0.1,0c-0.5,0-1,0-1.6,0
		c-0.6,0-1.2,0-1.8,0l0,0c2.3,2.6,5.8,4.1,10.3,4.1c9.4,0,17.4-4.2,20.9-13.5c2.5,0.3,4.9-0.4,6-2.5C144,68.5,141.7,68.9,140.4,69.5
		"/>
	<path class="st4" d="M140.4,69.5c0.3-2.2-1.4-4-2.4-4.8c-1.2,1.4-1.4,5,0.5,6.5c-1,0.9-3.2,1.8-5.5,1.8h-25.6
		c-0.1,3.6,1.2,6.3,3.6,7.9h0c1.9,0,3.4-0.3,4.5-0.7c0.2-0.1,0.4,0,0.4,0.2c0.1,0.2,0,0.3-0.2,0.4c-0.2,0.1-0.3,0.1-0.5,0.1h0
		c-0.9,0.3-2,0.5-3.2,0.5c0,0,0,0,0,0c3.2,1.6,7.8,1.6,13.2-0.4c6-2.3,11.5-6.7,15.4-11.7C140.5,69.5,140.5,69.5,140.4,69.5"/>
	<path class="st5" d="M105.9,75.8c0.2,1.3,0.5,2.4,1.1,3.5l0.3,0.6c0.2,0.3,0.4,0.7,0.6,1c1.1,0.1,2.2,0.1,3.1,0.1
		c1.9,0,3.4-0.3,4.5-0.7c0.2-0.1,0.4,0,0.4,0.2c0.1,0.2,0,0.3-0.2,0.4c-0.2,0.1-0.3,0.1-0.5,0.1h0c-0.9,0.3-2,0.4-3.2,0.5
		c0,0-0.1,0-0.2,0c-0.5,0-1,0-1.6,0c-0.6,0-1.2,0-1.9,0c2.3,2.6,5.8,4.1,10.3,4.1c8.1,0,15.1-3.1,19.1-9.8H105.9"/>
	<path class="st6" d="M107.7,75.8c0.5,2.2,1.6,3.9,3.3,5.1c1.9,0,3.4-0.3,4.5-0.7c0.2-0.1,0.4,0,0.4,0.2c0.1,0.2,0,0.3-0.2,0.4
		c-0.2,0.1-0.3,0.1-0.5,0.1h0c-0.9,0.3-2,0.4-3.2,0.5c3.2,1.6,7.8,1.6,13.2-0.4c3.2-1.2,6.3-3.1,9.1-5.3H107.7"/>
	<path class="st7" d="M109.5,68.6h3.7v3.7h-3.7V68.6z M109.8,68.9h0.3V72h-0.3V68.9z M110.4,68.9h0.3V72h-0.3L110.4,68.9L110.4,68.9
		z M110.9,68.9h0.3V72h-0.3V68.9z M111.5,68.9h0.3V72h-0.3V68.9z M112,68.9h0.3V72H112V68.9L112,68.9z M112.6,68.9h0.3V72h-0.3V68.9
		z M113.8,64.4h3.7v3.7h-3.7L113.8,64.4L113.8,64.4z M114.1,64.7h0.3v3.1h-0.3V64.7z M114.6,64.7h0.3v3.1h-0.3L114.6,64.7
		L114.6,64.7z M115.2,64.7h0.3v3.1h-0.3V64.7z M115.7,64.7h0.3v3.1h-0.3V64.7z M116.3,64.7h0.3v3.1h-0.3V64.7z M116.9,64.7h0.3v3.1
		h-0.3V64.7z"/>
	<path class="st8" d="M113.8,68.6h3.7v3.7h-3.7L113.8,68.6L113.8,68.6z M114.1,68.9h0.3V72h-0.3V68.9z M114.6,68.9h0.3V72h-0.3
		L114.6,68.9L114.6,68.9z M115.2,68.9h0.3V72h-0.3V68.9z M115.7,68.9h0.3V72h-0.3V68.9z M116.3,68.9h0.3V72h-0.3V68.9z M116.9,68.9
		h0.3V72h-0.3V68.9z"/>
	<path class="st7" d="M118,68.6h3.7v3.7H118V68.6z M118.3,68.9h0.3V72h-0.3V68.9z M118.9,68.9h0.3V72h-0.3V68.9z M119.4,68.9h0.3V72
		h-0.3V68.9z M120,68.9h0.3V72H120V68.9z M120.5,68.9h0.3V72h-0.3V68.9z M121.1,68.9h0.3V72h-0.3V68.9z"/>
	<path class="st8" d="M118,64.4h3.7v3.7H118V64.4z M118.3,64.7h0.3v3.1h-0.3V64.7z M118.9,64.7h0.3v3.1h-0.3V64.7z M119.4,64.7h0.3
		v3.1h-0.3V64.7z M120,64.7h0.3v3.1H120V64.7z M120.5,64.7h0.3v3.1h-0.3V64.7z M121.1,64.7h0.3v3.1h-0.3V64.7z M122.3,68.6h3.7v3.7
		h-3.7V68.6z M122.6,68.9h0.3V72h-0.3V68.9z M123.1,68.9h0.3V72h-0.3V68.9z M123.7,68.9h0.3V72h-0.3V68.9z M124.2,68.9h0.3V72h-0.3
		V68.9z M124.8,68.9h0.3V72h-0.3V68.9z M125.4,68.9h0.3V72h-0.3V68.9z"/>
	<path class="st7" d="M122.3,64.4h3.7v3.7h-3.7V64.4z M122.6,64.7h0.3v3.1h-0.3V64.7z M123.1,64.7h0.3v3.1h-0.3V64.7z M123.7,64.7
		h0.3v3.1h-0.3V64.7z M124.2,64.7h0.3v3.1h-0.3V64.7z M124.8,64.7h0.3v3.1h-0.3V64.7z M125.4,64.7h0.3v3.1h-0.3V64.7z"/>
	<path class="st8" d="M122.3,60.1h3.7v3.7h-3.7V60.1z M122.6,60.4h0.3v3.1h-0.3V60.4L122.6,60.4z M123.1,60.4h0.3v3.1h-0.3V60.4
		L123.1,60.4z M123.7,60.4h0.3v3.1h-0.3V60.4L123.7,60.4z M124.2,60.4h0.3v3.1h-0.3V60.4L124.2,60.4z M124.8,60.4h0.3v3.1h-0.3V60.4
		L124.8,60.4z M125.4,60.4h0.3v3.1h-0.3V60.4L125.4,60.4z"/>
	<path class="st7" d="M126.5,68.6h3.7v3.7h-3.7V68.6z M126.8,68.9h0.3V72h-0.3L126.8,68.9L126.8,68.9z M127.4,68.9h0.3V72h-0.3
		L127.4,68.9L127.4,68.9z M127.9,68.9h0.3V72h-0.3V68.9z M128.5,68.9h0.3V72h-0.3V68.9z M129,68.9h0.3V72H129V68.9z M129.6,68.9h0.3
		V72h-0.3V68.9z"/>
	<path class="st9" d="M117.2,78.3c0.6,0,1,0.4,1,1s-0.4,1-1,1c0,0,0,0,0,0c-0.6,0-1-0.5-1-1C116.2,78.7,116.7,78.3,117.2,78.3"/>
	<path class="st2" d="M117.2,78.6c0.1,0,0.2,0,0.3,0c-0.1,0.1-0.2,0.3-0.1,0.4c0.1,0.1,0.2,0.1,0.3,0.1c0.1,0,0.2-0.1,0.3-0.2
		c0.2,0.4,0,0.8-0.4,1c-0.4,0.2-0.8,0-1-0.4c-0.2-0.4,0-0.8,0.4-1C117,78.6,117.1,78.6,117.2,78.6 M99.2,76.2h47.3
		c-1-0.3-3.3-0.6-2.9-2c-1.9,2.2-6.4,1.5-7.5,0.5c-1.3,1.8-8.7,1.1-9.2-0.3c-1.6,1.9-6.5,1.9-8.1,0c-0.5,1.4-7.9,2.1-9.2,0.3
		c-1.1,1.1-5.7,1.7-7.5-0.5C102.5,75.6,100.3,75.9,99.2,76.2"/>
	<path class="st10" d="M119.9,85.6c-2.5-1.2-3.9-2.8-4.7-4.6c-0.9,0.3-2.1,0.4-3.4,0.5c-0.5,0-1,0-1.6,0c-0.6,0-1.3,0-2-0.1
		c2.3,2.3,5.1,4.1,10.4,4.1C119.2,85.6,119.5,85.6,119.9,85.6"/>
	<path class="st9" d="M116.2,82.6c-0.3-0.5-0.7-1.1-0.9-1.6c-0.9,0.3-2.1,0.4-3.4,0.5C112.8,82,114.1,82.5,116.2,82.6"/>
</g>
<path id="PortsBox" class="st11" d="M421.3,179.3H112.7c-2.8,0-5-2.2-5-5V143c0-2.8,2.2-5,5-5h308.7c2.8,0,5,2.2,5,5v31.3
	C426.3,177.1,424.1,179.3,421.3,179.3z"/>
<text transform="matrix(1 0 0 1 211.001 169.3172)" class="st2 st12 st13">80:8000</text>
<g>
	<g>
		<text transform="matrix(1 0 0 1 119.8579 143.04)" class="st14 st15 st16">Ports</text>
	</g>
	<g>
		<text transform="matrix(1 0 0 1 119.8579 143.04)" class="st5 st15 st16">Ports</text>
	</g>
</g>
</svg>
